<svg xmlns="http://www.w3.org/2000/svg" xmlns:xlink="http://www.w3.org/1999/xlink" version="1.1" x="0px" y="0px" viewBox="20 9 60 81.5" xml:space="preserve"><g><circle cx="39.6" cy="19" r="0.9"/><path d="M60.3,18.1c-0.5,0-0.9,0.4-0.9,0.9c0,0.5,0.4,0.9,0.9,0.9c0.5,0,0.9-0.4,0.9-0.9C61.2,18.5,60.8,18.1,60.3,18.1z"/><path d="M77.8,80.7c0,0-0.4-4.8,0-5.3c0.4-0.5-0.3-1.1-0.3-1.1S72.9,64,72.9,62.5c0-1.6-0.9-1.4-0.9-1.4s-7.1-11.1-7.5-13.9   c-0.4-2.7-3.4-6.9-5.1-7.3c-0.9-0.2-1.8-0.1-2.6,0l0-0.1c0,0-3-0.1-3.6-1.2c0,0-0.6-0.8-0.7-4.3c0,0,3.5-0.2,6.1-3   c2.6-2.9,5.9-4.4,7.7-6c1.5-1.4,3.6-4.7,1.6-7.9s-3.9-6.9-10.8-7.3c-6.8-0.5-7,0.6-7,0.6H50c0,0-0.2-1-7-0.6   c-6.8,0.5-8.7,4.1-10.8,7.3s0,6.5,1.6,7.9c1.8,1.6,5.1,3.1,7.7,6c2.6,2.9,6.1,3,6.1,3c-0.1,3.5-0.7,4.3-0.7,4.3   c-0.6,1.1-3.6,1.2-3.6,1.2l0,0.1c-0.8-0.1-1.7-0.2-2.6,0c-1.8,0.4-4.7,4.6-5.1,7.3C35.1,49.9,28,61.1,28,61.1s-0.9-0.1-0.9,1.4   c0,1.6-4.6,11.9-4.6,11.9s-0.7,0.6-0.3,1.1c0.4,0.5,0,5.3,0,5.3s-0.8,4.1-0.5,4.9c0.3,0.7-0.1,1.6,1.3,2c0,0,0.9,2.8,2.4,2.5   c1.5-0.3,0.5-1.8,0.5-1.8s1,0,0.5-0.7c-0.5-0.7-2.4-2.8-2.4-2.8s0.8-1,0.6-1.9c0,0,0.9-2.7,0.9-3.4c0,0,2.1,0.2,1.8-0.9   c-0.3-1.1-1.4-1-1.2-3.1c0.2-2.1,2.5-3.8,3.8-6.7c1.3-2.9,1.5-3.1,1.5-3.1s1.7-1.9,1.2-3c0,0,6.9-15.3,7.9-16.1   c0.3-0.2,0.5-0.3,0.7-0.2c-3.2,3.3-1.6,5.7-1.6,5.7c-1.1,0.7-0.6,2.5-0.6,2.5c-0.8,0.5-0.3,3.1-0.3,3.1c-0.8,1,0.3,2.6,0.3,2.6   c-0.6,0-0.5,2.6-0.5,2.6c-1.1,0.3-1.2,5.1-1.2,5.1c-0.9,1,0.3,2.8,0.3,2.8c-0.8,0.9,0.3,2.1,0.3,2.1c-0.8,0.2,0.4,3.7,0.4,3.7   c-0.5,0.6,0.5,2.6,0.5,2.6c-1.1,1.1-0.4,2.4-0.4,2.4c-0.8,0.1-0.7,1.7-0.7,1.7c-0.8,0-1.5,1.9-1.5,1.9c-2.3,1.5-2.8,2.9-2,4.1   c0.8,1.2,3.5-1.3,3.5-1.3s0.2,1.6,1.7,1.9c1.5,0.3,3-2.7,3-2.7s0.7,2.4,3.4,2.7c2.7,0.3,0-3,0-3c1.2-0.6,0-3.6,0-3.6   c0.9,0,0.4-2.3,0.4-2.3c0.9,0.6,2.1,0.9,3,0.9l0,0c0,0,0.3,0,0.8,0c0.5,0,0.8,0,0.8,0l0,0c0.9-0.1,2-0.3,3-0.9c0,0-0.5,2.3,0.4,2.3   c0,0-1.2,2.9,0,3.6c0,0-2.7,3.3,0,3c2.7-0.3,3.4-2.7,3.4-2.7s1.5,3,3,2.7c1.5-0.3,1.7-1.9,1.7-1.9s2.7,2.5,3.5,1.3   c0.8-1.2,0.3-2.6-2-4.1c0,0-0.7-1.9-1.5-1.9c0,0,0.1-1.6-0.7-1.7c0,0,0.7-1.4-0.4-2.4c0,0,1-2,0.5-2.6c0,0,1.2-3.4,0.4-3.7   c0,0,1.1-1.2,0.3-2.1c0,0,1.2-1.7,0.3-2.8c0,0-0.1-4.7-1.2-5.1c0,0,0.2-2.6-0.5-2.6c0,0,1.1-1.6,0.3-2.6c0,0,0.5-2.6-0.3-3.1   c0,0,0.5-1.8-0.6-2.5c0,0,1.6-2.4-1.6-5.7c0.2-0.1,0.4-0.1,0.7,0.2c0.9,0.8,7.9,16.1,7.9,16.1c-0.5,1.1,1.2,3,1.2,3   s0.1,0.2,1.5,3.1c1.3,2.9,3.6,4.5,3.8,6.7c0.2,2.1-0.9,2-1.2,3.1c-0.3,1.1,1.8,0.9,1.8,0.9c-0.1,0.7,0.9,3.4,0.9,3.4   c-0.2,0.9,0.6,1.9,0.6,1.9s-1.9,2-2.4,2.8c-0.5,0.7,0.5,0.7,0.5,0.7s-1.1,1.6,0.5,1.8c1.5,0.3,2.4-2.5,2.4-2.5c1.4-0.4,1-1.2,1.3-2   C78.6,84.9,77.8,80.7,77.8,80.7z M60.7,21.1c-2.1,0.2-3.2-1.4-3.2-1.4s1.4-2.3,3.4-2.7c2-0.4,3.1,2.2,3.1,2.2S62.7,20.9,60.7,21.1z    M52.7,15.4c0.6,0.3,1.3,0.4,1.9,0.4c0.7,0,1.3-0.2,2-0.4c0.6-0.2,1.3-0.5,1.9-0.7c0.6-0.3,1.3-0.5,2-0.8c0.2-0.1,0.4-0.1,0.6-0.1   c0.1,0,0.2,0,0.3,0c0.1,0,0.2,0,0.3,0c0.4,0,0.8,0.1,1.1,0.2c0.7,0.3,1.3,0.7,1.8,1.1c0.5,0.5,1,1,1.4,1.5   c-0.5-0.5-1.1-0.9-1.6-1.3c-0.6-0.4-1.2-0.7-1.8-0.9c-0.3-0.1-0.6-0.1-1-0.1c-0.1,0-0.2,0-0.2,0c-0.1,0-0.2,0-0.2,0   c-0.2,0-0.3,0.1-0.5,0.1c-0.6,0.2-1.3,0.5-1.9,0.8c-0.6,0.3-1.3,0.5-2,0.7c-0.7,0.2-1.4,0.3-2.1,0.3c-0.4,0-0.7-0.1-1.1-0.2   c-0.4-0.1-0.7-0.3-1-0.5c-0.6-0.4-1-1-1.3-1.6C51.6,14.6,52.1,15.1,52.7,15.4z M51.6,20.2c0.5,0,0.9,0.6,0.9,1.2   c0,0.7-0.4,1.2-0.9,1.2c-0.5,0-0.9-0.6-0.9-1.2C50.7,20.7,51.1,20.2,51.6,20.2z M49.3,21.4c0,0.7-0.4,1.2-0.9,1.2   c-0.5,0-0.9-0.6-0.9-1.2c0-0.7,0.4-1.2,0.9-1.2C48.9,20.2,49.3,20.7,49.3,21.4z M39.3,21.1c-2.1-0.2-3.2-1.9-3.2-1.9   s1.1-2.6,3.1-2.2c2,0.4,3.4,2.7,3.4,2.7S41.4,21.3,39.3,21.1z M41.2,15.3c-0.6-0.3-1.3-0.6-1.9-0.8c-0.2-0.1-0.3-0.1-0.5-0.1   c-0.1,0-0.2,0-0.2,0c-0.1,0-0.2,0-0.2,0c-0.3,0-0.6,0.1-1,0.1c-0.6,0.2-1.2,0.5-1.8,0.9c-0.6,0.4-1.1,0.8-1.6,1.3   c0.4-0.6,0.9-1.1,1.4-1.5c0.5-0.4,1.2-0.9,1.8-1.1c0.3-0.1,0.7-0.2,1.1-0.2c0.1,0,0.2,0,0.3,0c0.1,0,0.2,0,0.3,0   c0.2,0,0.4,0.1,0.6,0.1c0.7,0.2,1.3,0.5,2,0.8c0.6,0.3,1.3,0.5,1.9,0.7c0.6,0.2,1.3,0.4,2,0.4c0.7,0,1.3-0.1,1.9-0.4   c0.6-0.3,1.1-0.8,1.5-1.4c-0.3,0.6-0.7,1.2-1.3,1.6c-0.3,0.2-0.6,0.4-1,0.5c-0.4,0.1-0.7,0.1-1.1,0.2c-0.7,0-1.4-0.1-2.1-0.3   C42.5,15.8,41.9,15.5,41.2,15.3z M47.2,30.4c-1-0.3-2-0.8-2.9-1.5c1,0.4,2,0.6,3,0.8c1,0.2,2,0.3,3.1,0.3c1,0,2-0.1,3.1-0.3   c0.5-0.1,1-0.2,1.5-0.4c0.3,0,0.5-0.2,0.8-0.2c0.3-0.1,0.5-0.2,0.8-0.2c-0.2,0.2-0.4,0.3-0.7,0.4c-0.1,0.1-0.2,0.1-0.3,0.2   c-0.1,0.1-0.2,0.1-0.4,0.2c-0.5,0.2-1,0.5-1.5,0.6c-1,0.4-2.1,0.5-3.2,0.5C49.3,30.9,48.2,30.8,47.2,30.4z M55.8,73.5   c-0.6,0.9-1.4,1.7-2.3,2.2c-0.9,0.6-2,0.9-3.1,0.9c-1.1,0-2.2-0.3-3.1-0.9c-0.9-0.6-1.7-1.3-2.3-2.2c-1.2-1.8-1.7-3.9-1.6-6   c0.1,2.1,0.8,4.1,2,5.7c0.6,0.8,1.3,1.5,2.2,2c0.9,0.5,1.8,0.8,2.8,0.8c1,0,1.9-0.3,2.8-0.8c0.9-0.5,1.6-1.2,2.2-2   c1.2-1.6,1.8-3.6,2-5.7C57.5,69.5,57,71.7,55.8,73.5z"/></g></svg>